<mxfile host="app.diagrams.net" agent="Mozilla/5.0 (Windows NT 10.0; Win64; x64) AppleWebKit/537.36 (KHTML, like Gecko) Chrome/127.0.0.0 Safari/537.36" version="24.7.7">
  <diagram name="Page-1" id="Mb82182y0DrF40kmQnk_">
    <mxGraphModel dx="1050" dy="522" grid="1" gridSize="10" guides="1" tooltips="1" connect="1" arrows="1" fold="1" page="1" pageScale="1" pageWidth="827" pageHeight="1169" math="0" shadow="0">
      <root>
        <mxCell id="0" />
        <mxCell id="1" parent="0" />
        <mxCell id="6F2_w4WDEjUQcuX0ew4i-1" value="host" style="ellipse;whiteSpace=wrap;html=1;" vertex="1" parent="1">
          <mxGeometry x="350" y="200" width="120" height="110" as="geometry" />
        </mxCell>
        <mxCell id="6F2_w4WDEjUQcuX0ew4i-8" value="audience" style="ellipse;whiteSpace=wrap;html=1;" vertex="1" parent="1">
          <mxGeometry x="260" y="430" width="80" height="70" as="geometry" />
        </mxCell>
        <mxCell id="6F2_w4WDEjUQcuX0ew4i-9" value="audience" style="ellipse;whiteSpace=wrap;html=1;" vertex="1" parent="1">
          <mxGeometry x="160" y="430" width="80" height="70" as="geometry" />
        </mxCell>
        <mxCell id="6F2_w4WDEjUQcuX0ew4i-10" value="audience" style="ellipse;whiteSpace=wrap;html=1;" vertex="1" parent="1">
          <mxGeometry x="590" y="340" width="80" height="70" as="geometry" />
        </mxCell>
        <mxCell id="6F2_w4WDEjUQcuX0ew4i-11" value="audience" style="ellipse;whiteSpace=wrap;html=1;" vertex="1" parent="1">
          <mxGeometry x="470" y="340" width="80" height="70" as="geometry" />
        </mxCell>
        <mxCell id="6F2_w4WDEjUQcuX0ew4i-12" value="audience" style="ellipse;whiteSpace=wrap;html=1;" vertex="1" parent="1">
          <mxGeometry x="370" y="340" width="80" height="70" as="geometry" />
        </mxCell>
        <mxCell id="6F2_w4WDEjUQcuX0ew4i-13" value="audience" style="ellipse;whiteSpace=wrap;html=1;" vertex="1" parent="1">
          <mxGeometry x="260" y="340" width="80" height="70" as="geometry" />
        </mxCell>
        <mxCell id="6F2_w4WDEjUQcuX0ew4i-14" value="audience" style="ellipse;whiteSpace=wrap;html=1;" vertex="1" parent="1">
          <mxGeometry x="160" y="340" width="80" height="70" as="geometry" />
        </mxCell>
      </root>
    </mxGraphModel>
  </diagram>
</mxfile>
